<svg width="213" height="48" viewBox="0 0 213 48" fill="none" xmlns="http://www.w3.org/2000/svg">
<g clip-path="url(#clip0_2512_834)">
<path d="M10.6158 33.6169C8.7342 33.6169 7.07723 33.5607 5.64494 33.4483C4.21264 33.336 2.48546 33.1675 0.46339 32.9428V29.2357C0.716148 29.348 1.54463 29.7553 2.94885 30.4574C4.35306 31.1595 5.82748 31.7352 7.37212 32.1846C8.91675 32.6058 10.3631 32.8164 11.7111 32.8164C13.4524 32.8164 14.7723 32.325 15.671 31.342C16.5978 30.3591 17.0612 29.0251 17.0612 27.34C17.0612 26.0762 16.668 24.8686 15.8816 23.7172C15.0953 22.5657 14.1264 21.5125 12.9749 20.5577C11.8235 19.6028 10.2929 18.4654 8.38315 17.1454C6.5015 15.8255 5.01304 14.7161 3.91775 13.8175C2.82247 12.8907 1.89569 11.8796 1.13741 10.7844C0.379137 9.68907 0 8.55166 0 7.37212C0 5.06921 0.884654 3.31394 2.65396 2.10632C4.45135 0.870613 6.69809 0.25276 9.39418 0.25276C12.5677 0.25276 15.7553 0.477434 18.9569 0.926781V4.42327C14.4072 2.06419 10.9248 0.884655 8.50953 0.884655C7.1334 0.884655 5.92578 1.27783 4.88666 2.06419C3.84754 2.82247 3.32798 3.84754 3.32798 5.13942C3.32798 6.26279 3.67904 7.32999 4.38114 8.34102C5.08325 9.35206 5.95386 10.2788 6.99298 11.1214C8.0321 11.9358 9.45035 12.9609 11.2477 14.1966C13.2136 15.5727 14.7864 16.7382 15.9659 17.6931C17.1454 18.6479 18.1424 19.7432 18.9569 20.9789C19.7994 22.2146 20.2207 23.5486 20.2207 24.9809C20.2487 26.7783 19.8275 28.337 18.9569 29.657C18.1143 30.9488 16.9488 31.9318 15.4604 32.6058C14 33.2798 12.3852 33.6169 10.6158 33.6169Z" fill="#1F2937"/>
<path d="M31.2936 33.5747C29.9737 33.5747 28.7239 33.2658 27.5444 32.6479C26.3929 32.002 25.4521 31.0612 24.7219 29.8255C24.0198 28.5898 23.6688 27.1294 23.6688 25.4443V18.4935C23.6688 16.4433 23.5986 14.6319 23.4581 13.0592C23.3458 11.4865 23.1492 10.5176 22.8684 10.1525V10.0682H27.9657V26.1184C27.9657 28.3651 28.3588 30.0502 29.1452 31.1735C29.9596 32.2688 30.9988 32.8164 32.2626 32.8164C33.3859 32.8164 34.4953 32.4092 35.5905 31.5948C36.7139 30.7803 37.6407 29.6429 38.3709 28.1825C39.1011 26.7222 39.4662 25.0933 39.4662 23.2959V18.4935C39.4662 16.4433 39.396 14.6319 39.2555 13.0592C39.1432 11.4865 38.9466 10.5176 38.6658 10.1525V10.0682H43.7631V24.5176C43.7631 26.5677 43.8192 28.3791 43.9316 29.9519C44.072 31.5246 44.2826 32.4935 44.5635 32.8586V32.9428H39.4662V26.9609H39.3819C38.7921 28.9268 37.739 30.5276 36.2224 31.7633C34.7059 32.9709 33.063 33.5747 31.2936 33.5747Z" fill="#1F2937"/>
<path d="M47.871 32.8586C48.1519 32.4935 48.3485 31.5246 48.4608 29.9519C48.6012 28.3791 48.6714 26.5677 48.6714 24.5176V18.4935C48.6714 16.4433 48.6012 14.6319 48.4608 13.0592C48.3485 11.4865 48.1519 10.5176 47.871 10.1525V10.0682H52.9683V16.7663H53.0526C53.6704 14.4915 54.7798 12.7362 56.3806 11.5005C57.9814 10.2367 59.6945 9.60482 61.52 9.60482C62.6995 9.60482 63.7948 9.88566 64.8058 10.4473C65.8169 11.009 66.6173 11.8656 67.207 13.0171C67.8249 14.1404 68.1338 15.5025 68.1338 17.1033V24.5176C68.1338 26.5677 68.19 28.3791 68.3023 29.9519C68.4427 31.5246 68.6534 32.4935 68.9342 32.8586V32.9428H63.0365V32.8586C63.3174 32.4935 63.514 31.5246 63.6263 29.9519C63.7667 28.3511 63.8229 26.5396 63.7948 24.5176V17.1033C63.7948 14.9408 63.4297 13.4664 62.6995 12.68C61.9974 11.8937 61.0285 11.5005 59.7928 11.5005C58.6975 11.5005 57.6303 11.8516 56.5912 12.5537C55.5521 13.2558 54.6815 14.337 53.9794 15.7974C53.3053 17.2297 52.9683 18.999 52.9683 21.1053V24.5176C52.9683 26.5677 53.0245 28.3791 53.1368 29.9519C53.2773 31.5246 53.4879 32.4935 53.7687 32.8586V32.9428H47.871V32.8586Z" fill="#1F2937"/>
<path d="M74.7529 4.08626C73.9385 4.08626 73.3066 3.88967 72.8572 3.49649C72.4079 3.07523 72.1832 2.58375 72.1832 2.02207C72.1832 1.48847 72.4079 1.02508 72.8572 0.631898C73.3066 0.210633 73.9385 0 74.7529 0C75.5393 0 76.1571 0.210633 76.6065 0.631898C77.0558 1.02508 77.2805 1.48847 77.2805 2.02207C77.2805 2.58375 77.0558 3.07523 76.6065 3.49649C76.1571 3.88967 75.5393 4.08626 74.7529 4.08626ZM71.8041 32.8586C72.0849 32.4935 72.2815 31.5246 72.3939 29.9519C72.5343 28.3791 72.6045 26.5677 72.6045 24.5176V18.4935C72.6045 16.4433 72.5343 14.6319 72.3939 13.0592C72.2815 11.4865 72.0849 10.5176 71.8041 10.1525V10.0682H76.9014V24.5176C76.9014 26.5677 76.9575 28.3791 77.0699 29.9519C77.2103 31.5246 77.4209 32.4935 77.7018 32.8586V32.9428H71.8041V32.8586Z" fill="#1F2937"/>
<path d="M92.1837 9.68907C93.6722 9.68907 95.0623 10.0682 96.3542 10.8265C97.6742 11.5848 98.7414 12.7783 99.5558 14.4072C100.398 16.008 100.82 18.0582 100.82 20.5577C100.82 23.6189 100.37 26.1324 99.4716 28.0983C98.5729 30.0361 97.4074 31.4403 95.9751 32.3109C94.5709 33.1815 93.0684 33.6169 91.4676 33.6169C90.288 33.6169 89.1787 33.4062 88.1396 32.985C87.1005 32.5637 86.272 32.002 85.6541 31.2999V33.5747C85.6541 35.6249 85.7103 37.4363 85.8226 39.009C85.963 40.5817 86.1737 41.5507 86.4545 41.9157V42H80.5568V41.9157C80.8377 41.5507 81.0343 40.5817 81.1466 39.009C81.287 37.4363 81.3572 35.6249 81.3572 33.5747V18.4935C81.3572 16.4433 81.287 14.6319 81.1466 13.0592C81.0343 11.4865 80.8377 10.5176 80.5568 10.1525V10.0682H85.6541V12.9749C86.2439 11.9639 87.1285 11.1635 88.3081 10.5737C89.5157 9.98395 90.8076 9.68907 92.1837 9.68907ZM90.0774 32.8164C91.2008 32.8164 92.2539 32.4233 93.2369 31.6369C94.2479 30.8506 95.0623 29.5446 95.6802 27.7192C96.3261 25.8656 96.6491 23.4784 96.6491 20.5577C96.6491 17.0752 96.1155 14.5476 95.0483 12.9749C93.9811 11.3741 92.6611 10.5737 91.0884 10.5737C90.2178 10.5737 89.3612 10.8124 88.5187 11.2899C87.6762 11.7392 86.9881 12.343 86.4545 13.1013C85.9209 13.8315 85.6541 14.5757 85.6541 15.334V29.7834C85.935 30.654 86.4826 31.3842 87.297 31.9739C88.1396 32.5356 89.0664 32.8164 90.0774 32.8164Z" fill="#1F2937"/>
<path d="M110.118 33.6169C108.265 33.6169 106.692 33.0833 105.4 32.016C104.136 30.9488 103.49 29.4604 103.462 27.5507C103.462 26.0622 103.842 24.5176 104.6 22.9168C105.386 21.2879 106.481 19.336 107.886 17.0612C108.784 15.6289 109.416 14.5476 109.781 13.8175C110.175 13.0873 110.371 12.4835 110.371 12.006C111.073 12.006 111.635 12.2307 112.056 12.68C112.506 13.1013 112.73 13.7472 112.73 14.6179C112.73 15.011 112.576 15.5166 112.267 16.1344C111.986 16.7242 111.649 17.3561 111.256 18.0301C110.891 18.7041 110.652 19.1535 110.54 19.3781C109.248 21.5968 108.223 23.5486 107.464 25.2337C106.734 26.8907 106.369 28.4774 106.369 29.994C106.369 30.9208 106.734 31.665 107.464 32.2267C108.223 32.7603 109.149 33.0271 110.245 33.0271C111.424 33.0271 112.604 32.7603 113.783 32.2267C114.991 31.6931 115.988 30.9348 116.774 29.9519C117.561 28.9408 117.954 27.7894 117.954 26.4975V19.1675C117.954 13.1856 116.55 10.1946 113.741 10.1946C112.225 10.1946 110.287 11.0792 107.928 12.8485L107.17 10.7422C109.529 10.012 111.607 9.64694 113.404 9.64694C116.522 9.64694 118.768 10.6439 120.144 12.6379C121.549 14.6319 122.251 17.2578 122.251 20.5155V24.5176C122.251 26.5677 122.307 28.3791 122.419 29.9519C122.56 31.5246 122.77 32.4935 123.051 32.8586V32.9428H118.038V29.2778H117.912C117.069 30.682 115.932 31.7633 114.499 32.5216C113.095 33.2518 111.635 33.6169 110.118 33.6169Z" fill="#1F2937"/>
<path d="M133.566 32.9428V32.8586C133.847 32.4935 134.044 31.5246 134.156 29.9519C134.296 28.3791 134.367 26.5677 134.367 24.5176V9.35206C134.367 7.30191 134.296 5.49047 134.156 3.91776C134.044 2.34504 133.847 1.37613 133.566 1.01104V0.926781H146.794C148.451 0.926781 149.785 1.12337 150.796 1.51655C151.835 1.88165 152.565 2.33099 152.987 2.86459C153.436 3.3982 153.661 3.9318 153.661 4.4654C153.661 5.42026 153.394 6.16449 152.86 6.6981C152.355 7.20361 151.737 7.55467 151.007 7.75125C150.276 7.91976 149.35 8.06018 148.226 8.17252C146.906 8.31294 145.937 8.49549 145.32 8.72016C144.702 8.94484 144.393 9.40823 144.393 10.1103C144.393 10.7282 144.674 11.2337 145.235 11.6269C145.797 11.992 146.696 12.4413 147.931 12.9749C149.56 13.677 150.922 14.3791 152.018 15.0812C153.113 15.7834 154.068 16.8225 154.882 18.1986C155.697 19.5747 156.104 21.344 156.104 23.5065C156.104 25.0792 155.697 26.5958 154.882 28.0562C154.096 29.4885 152.902 30.668 151.301 31.5948C149.701 32.4935 147.763 32.9428 145.488 32.9428H133.566ZM144.603 32.3109C146.204 32.3109 147.552 31.8756 148.648 31.005C149.743 30.1344 150.543 29.0251 151.049 27.677C151.554 26.329 151.807 24.9388 151.807 23.5065C151.807 21.8215 151.554 20.3751 151.049 19.1675C150.543 17.9599 149.953 16.991 149.279 16.2608C148.605 15.5306 147.749 14.7442 146.71 13.9017C145.755 13.1434 145.053 12.4975 144.603 11.9639C144.182 11.4303 143.972 10.8124 143.972 10.1103C143.972 9.2678 144.182 8.67803 144.603 8.34102C145.025 8.00401 145.657 7.70913 146.499 7.45637C147.145 7.25978 147.665 7.06319 148.058 6.8666C148.451 6.67001 148.774 6.34704 149.027 5.89769C149.308 5.44835 149.448 4.83049 149.448 4.04413C149.448 3.14544 149.125 2.51354 148.479 2.14845C147.861 1.78335 146.948 1.6008 145.741 1.6008H138.621L138.664 32.3109H144.603Z" fill="#1F2937"/>
<path d="M169.248 33.3856C167.282 33.3856 165.442 32.9644 163.729 32.1218C162.044 31.2793 160.668 29.9453 159.601 28.1198C158.534 26.2663 158 23.9212 158 21.0847C158 18.6976 158.506 16.6334 159.517 14.8921C160.556 13.1228 161.932 11.7888 163.645 10.8901C165.358 9.96343 167.24 9.5 169.29 9.5C172.07 9.5 174.092 10.0195 175.356 11.0586C176.648 12.0978 177.294 13.4598 177.294 15.1449C177.294 16.2121 176.985 17.1951 176.367 18.0938C175.777 18.9644 175.033 19.7226 174.134 20.3686C173.264 21.0145 172.126 21.7728 170.722 22.6434C168.953 23.7106 167.647 24.6233 166.804 25.3816C165.962 26.1399 165.541 27.0105 165.541 27.9934H164.867C164.867 27.0386 165.133 26.2382 165.667 25.5922C166.229 24.9463 167.113 24.1599 168.321 23.2332C169.332 22.4749 170.146 21.8009 170.764 21.2111C171.382 20.6213 171.902 19.8771 172.323 18.9784C172.772 18.0797 172.997 17.0406 172.997 15.8611C172.997 15.0747 172.829 14.2462 172.492 13.3756C172.183 12.505 171.677 11.7608 170.975 11.1429C170.273 10.497 169.402 10.174 168.363 10.174C166.425 10.174 164.937 11.1289 163.898 13.0386C162.859 14.9483 162.339 17.6304 162.339 21.0847C162.339 25.1569 163.069 28.1198 164.53 29.9734C165.99 31.8269 167.815 32.7537 170.006 32.7537C171.186 32.7537 172.351 32.515 173.503 32.0376C174.654 31.5321 175.623 30.8861 176.409 30.0998L176.831 30.9423C175.904 31.7006 174.766 32.3044 173.418 32.7537C172.098 33.175 170.708 33.3856 169.248 33.3856Z" fill="#1F2937"/>
<path d="M184.668 18.9569C185.201 16.0923 186.212 13.8175 187.701 12.1324C189.217 10.4193 191.197 9.56269 193.64 9.56269V12.9328C191.646 12.9328 190.018 13.2417 188.754 13.8596C187.49 14.4493 186.521 15.4323 185.847 16.8084C185.173 18.1846 184.78 20.0381 184.668 22.3691V24.5176C184.668 26.5677 184.724 28.3791 184.836 29.9519C184.976 31.5246 185.187 32.4935 185.468 32.8586V32.9428H179.57V32.8586C179.851 32.4935 180.048 31.5246 180.16 29.9519C180.3 28.3791 180.371 26.5677 180.371 24.5176V18.4935C180.371 16.4433 180.3 14.6319 180.16 13.0592C180.048 11.4865 179.851 10.5176 179.57 10.1525V10.0682H184.668V18.9569Z" fill="#1F2937"/>
<path d="M200.04 33.6169C198.186 33.6169 196.614 33.0833 195.322 32.016C194.058 30.9488 193.412 29.4604 193.384 27.5507C193.384 26.0622 193.763 24.5176 194.521 22.9168C195.308 21.2879 196.403 19.336 197.807 17.0612C198.706 15.6289 199.338 14.5476 199.703 13.8175C200.096 13.0873 200.293 12.4835 200.293 12.006C200.995 12.006 201.557 12.2307 201.978 12.68C202.427 13.1013 202.652 13.7472 202.652 14.6179C202.652 15.011 202.497 15.5166 202.189 16.1344C201.908 16.7242 201.571 17.3561 201.177 18.0301C200.812 18.7041 200.574 19.1535 200.461 19.3781C199.169 21.5968 198.144 23.5486 197.386 25.2337C196.656 26.8907 196.291 28.4774 196.291 29.994C196.291 30.9208 196.656 31.665 197.386 32.2267C198.144 32.7603 199.071 33.0271 200.166 33.0271C201.346 33.0271 202.526 32.7603 203.705 32.2267C204.913 31.6931 205.91 30.9348 206.696 29.9519C207.482 28.9408 207.876 27.7894 207.876 26.4975V19.1675C207.876 13.1856 206.471 10.1946 203.663 10.1946C202.146 10.1946 200.209 11.0792 197.85 12.8485L197.091 10.7422C199.45 10.012 201.529 9.64694 203.326 9.64694C206.443 9.64694 208.69 10.6439 210.066 12.6379C211.47 14.6319 212.172 17.2578 212.172 20.5155V24.5176C212.172 26.5677 212.229 28.3791 212.341 29.9519C212.481 31.5246 212.692 32.4935 212.973 32.8586V32.9428H207.96V29.2778H207.833C206.991 30.682 205.854 31.7633 204.421 32.5216C203.017 33.2518 201.557 33.6169 200.04 33.6169Z" fill="#1F2937"/>
<path d="M92.2728 46.95V40.15H94.9505C96.6756 40.15 97.7445 40.99 97.7445 42.38C97.7445 43.81 96.665 44.63 94.9716 44.63H93.7016V46.95H92.2728ZM94.9293 41.22H93.7016V43.56H94.8975C95.8077 43.56 96.284 43.1 96.284 42.39C96.284 41.68 95.7971 41.22 94.9293 41.22Z" fill="#6B7280"/>
<path d="M100.085 46.95V40.15H102.9C104.52 40.15 105.525 40.92 105.525 42.16C105.525 42.92 105.176 43.45 104.562 43.76C104.932 43.98 105.155 44.34 105.303 44.9L105.843 46.95H104.361L103.938 45.15C103.768 44.45 103.493 44.31 102.784 44.31H101.514V46.95H100.085ZM102.869 41.22H101.514V43.25H102.837C103.641 43.25 104.065 42.85 104.065 42.23C104.065 41.62 103.631 41.22 102.869 41.22Z" fill="#6B7280"/>
<path d="M111.385 47.1C109.205 47.1 107.861 45.75 107.861 43.56C107.861 41.37 109.205 40 111.385 40C113.565 40 114.92 41.37 114.92 43.56C114.92 45.75 113.565 47.1 111.385 47.1ZM111.385 45.98C112.687 45.98 113.46 45.07 113.46 43.56C113.46 42.05 112.687 41.12 111.385 41.12C110.083 41.12 109.321 42.04 109.321 43.56C109.321 45.07 110.083 45.98 111.385 45.98Z" fill="#6B7280"/>
<path d="M117.364 46.95V40.15H119.978C122.232 40.15 123.64 41.44 123.64 43.56C123.64 45.68 122.232 46.95 119.978 46.95H117.364ZM119.978 45.86C121.364 45.86 122.19 45.01 122.19 43.56C122.19 42.1 121.364 41.24 119.978 41.24H118.792V45.86H119.978Z" fill="#6B7280"/>
<path d="M132.023 44.36C132.023 46.06 130.88 47.1 129.027 47.1C127.175 47.1 126.032 46.06 126.032 44.36V40.15H127.461V44.36C127.461 45.39 128.043 46.01 129.027 46.01C130.022 46.01 130.604 45.39 130.604 44.36V40.15H132.023V44.36Z" fill="#6B7280"/>
<path d="M140.897 42.25H139.404C139.182 41.51 138.579 41.12 137.774 41.12C136.568 41.12 135.869 42.05 135.869 43.56C135.869 45.08 136.557 45.98 137.774 45.98C138.536 45.98 139.14 45.61 139.383 44.9H140.886C140.505 46.32 139.267 47.1 137.796 47.1C135.689 47.1 134.409 45.76 134.409 43.56C134.409 41.37 135.711 40 137.817 40C139.309 40 140.568 40.77 140.897 42.25Z" fill="#6B7280"/>
<path d="M144.969 46.95V41.26H142.651V40.15H148.715V41.26H146.398V46.95H144.969Z" fill="#6B7280"/>
<path d="M154.079 46.95V40.15H156.693C158.948 40.15 160.355 41.44 160.355 43.56C160.355 45.68 158.948 46.95 156.693 46.95H154.079ZM156.693 45.86C158.08 45.86 158.905 45.01 158.905 43.56C158.905 42.1 158.08 41.24 156.693 41.24H155.508V45.86H156.693Z" fill="#6B7280"/>
<path d="M162.811 46.95V40.15H167.87V41.22H164.24V42.92H167.468V43.98H164.24V45.88H167.87V46.95H162.811Z" fill="#6B7280"/>
<path d="M171.489 41.86C171.489 43.49 175.797 42.17 175.797 44.95C175.797 46.32 174.611 47.1 172.982 47.1C171.341 47.1 170.177 46.38 169.902 44.9H171.394C171.574 45.62 172.124 46.02 172.992 46.02C173.881 46.02 174.336 45.67 174.336 45.12C174.336 43.39 170.039 44.69 170.039 41.98C170.039 40.9 170.981 40 172.685 40C174.135 40 175.363 40.66 175.596 42.19H174.082C173.913 41.43 173.415 41.08 172.643 41.08C171.923 41.08 171.489 41.39 171.489 41.86Z" fill="#6B7280"/>
<path d="M178.105 46.95V40.15H179.534V46.95H178.105Z" fill="#6B7280"/>
<path d="M188.451 46.95H187.457L187.34 46.09C186.896 46.78 186.144 47.1 185.255 47.1C183.276 47.1 181.974 45.76 181.974 43.56C181.974 41.37 183.276 40 185.382 40C186.874 40 188.134 40.77 188.462 42.25H186.97C186.747 41.52 186.144 41.12 185.34 41.12C184.133 41.12 183.435 42.04 183.435 43.56C183.435 45.08 184.165 45.98 185.393 45.98C186.282 45.98 187.001 45.5 187.097 44.37H185.541V43.35H188.451V46.95Z" fill="#6B7280"/>
<path d="M191.012 46.95V40.15H192.515L195.182 44.19L195.679 45.12L195.626 40.15H197.044V46.95H195.552L192.885 42.92L192.377 41.97L192.441 46.95H191.012Z" fill="#6B7280"/>
<path d="M199.744 46.95V40.15H204.803V41.22H201.173V42.92H204.401V43.98H201.173V45.88H204.803V46.95H199.744Z" fill="#6B7280"/>
<path d="M207.215 46.95V40.15H210.031C211.65 40.15 212.655 40.92 212.655 42.16C212.655 42.92 212.306 43.45 211.692 43.76C212.063 43.98 212.285 44.34 212.433 44.9L212.973 46.95H211.491L211.068 45.15C210.898 44.45 210.623 44.31 209.914 44.31H208.644V46.95H207.215ZM209.999 41.22H208.644V43.25H209.967C210.771 43.25 211.195 42.85 211.195 42.23C211.195 41.62 210.761 41.22 209.999 41.22Z" fill="#6B7280"/>
</g>
<defs>
<clipPath id="clip0_2512_834">
<rect width="213" height="48" fill="white"/>
</clipPath>
</defs>
</svg>
